<svg xmlns="http://www.w3.org/2000/svg" width="120" height="120" viewBox="0 0 120 120">
    <g fill="#D9DFE5" fill-rule="nonzero">
        <path d="M118 0H2C.894 0 0 .894 0 2v116c0 1.106.894 2 2 2h116c1.106 0 2-.894 2-2V2c0-1.106-.894-2-2-2zM34 116v-4c0-7.718 6.282-14 14-14h24c7.718 0 14 6.282 14 14v4H34zM24 76h-4V56h4v20zm4-32h64v50H28V44zm30-14a2 2 0 1 1 4.001.001A2 2 0 0 1 58 30zm38 26h4v20h-4V56zm20 60H90v-4c0-5.652-2.624-10.698-6.71-14H94c1.106 0 2-.894 2-2V80h6c1.106 0 2-.894 2-2V54c0-1.106-.894-2-2-2h-6V42c0-1.106-.894-2-2-2H62v-4.368c2.322-.828 4-3.028 4-5.632 0-3.308-2.692-6-6-6s-6 2.692-6 6c0 2.604 1.678 4.804 4 5.632V40H26c-1.106 0-2 .894-2 2v10h-6c-1.106 0-2 .894-2 2v24c0 1.106.894 2 2 2h6v16c0 1.106.894 2 2 2h10.71c-4.086 3.302-6.71 8.348-6.71 14v4H4V20h112v96zm0-100H4V4h112v12z"/>
        <path d="M8 16h4v4H8zM16 16h4v4h-4zM24 16h4v4h-4zM52 16h60v4H52zM51.143 72L54 69.143 48.357 63.5 54 57.857 51.143 55 45.5 60.643 39.857 55 37 57.857l5.643 5.643L37 69.143 39.857 72l5.643-5.643zM69.857 72l5.643-5.643L81.143 72 84 69.143 78.357 63.5 84 57.857 81.143 55 75.5 60.643 69.857 55 67 57.857l5.643 5.643L67 69.143zM72 90c1.106 0 2-.894 2-2 0-7.718-6.282-14-14-14s-14 6.282-14 14c0 1.106.894 2 2 2h24zM60 78c4.83 0 8.87 3.442 9.798 8H50.2c.93-4.558 4.97-8 9.8-8z"/>
    </g>
</svg>
