<svg xmlns="http://www.w3.org/2000/svg" width="120" height="120" viewBox="0 0 120 120">
    <path fill="#D9DFE5" fill-rule="nonzero" d="M95.957 101.476c1.015 0 1.838.829 1.838 1.85v3.835c0 7.08-5.722 12.839-12.755 12.839H11.734c-.163 0-.318-.028-.468-.068a1.82 1.82 0 0 1-.469.068C4.844 120 0 115.124 0 109.131V95.198c0-1.021.823-1.85 1.838-1.85h11.764c1.015 0 1.838.829 1.838 1.85 0 1.022-.823 1.85-1.838 1.85H3.676v12.083c0 3.953 3.195 7.168 7.121 7.168.164 0 .32.029.471.069.052-.014.102-.033.157-.042.332-.06 8.27-1.555 8.27-8.67v-66.57c0-1.021.822-1.85 1.837-1.85 1.015 0 1.838.829 1.838 1.85v66.57c0 3.872-1.65 6.683-3.806 8.643H85.04c5.006 0 9.079-4.1 9.079-9.138v-3.835c0-1.022.823-1.85 1.838-1.85zM21.532 27.238a1.844 1.844 0 0 1-1.838-1.85V1.85c0-1.022.823-1.85 1.838-1.85h74.425c1.015 0 1.838.828 1.838 1.85v26.034c0 1.021-.823 1.85-1.838 1.85a1.844 1.844 0 0 1-1.839-1.85V3.7H23.37v21.688c0 1.022-.823 1.85-1.838 1.85zm34.43-11.74h29.643c1.016 0 1.839.828 1.839 1.85 0 1.022-.823 1.85-1.839 1.85H55.963a1.844 1.844 0 0 1-1.838-1.85c0-1.022.823-1.85 1.838-1.85zm-24.454 0h13.14c1.015 0 1.838.828 1.838 1.85 0 1.022-.823 1.85-1.838 1.85h-13.14a1.844 1.844 0 0 1-1.838-1.85c0-1.022.823-1.85 1.838-1.85zm54.097 93.026H72.841a1.844 1.844 0 0 1-1.838-1.85c0-1.021.822-1.85 1.838-1.85h12.764c1.016 0 1.839.829 1.839 1.85 0 1.022-.823 1.85-1.839 1.85zm-55.935-1.85c0-1.022.823-1.85 1.838-1.85h28.85c1.016 0 1.839.829 1.839 1.85 0 1.022-.823 1.85-1.838 1.85h-28.85a1.844 1.844 0 0 1-1.839-1.85zm16.251-14.943c1.016 0 1.839.828 1.838 1.85 0 1.022-.822 1.85-1.838 1.85H31.508a1.844 1.844 0 0 1-1.838-1.85c0-1.022.823-1.85 1.838-1.85h14.413zm72 5.562c2.772 2.79 2.772 7.328 0 10.117a7.062 7.062 0 0 1-5.025 2.092 7.06 7.06 0 0 1-5.026-2.092L90.338 89.763a34.184 34.184 0 0 1-18.873 5.668c-19.055 0-34.557-15.604-34.557-34.784S52.41 25.863 71.465 25.863c19.054 0 34.556 15.604 34.556 34.784 0 10.831-4.945 20.52-12.68 26.905l17.129 17.242a3.42 3.42 0 0 0 4.852 0 3.474 3.474 0 0 0 0-4.884l-12.917-13.002a1.859 1.859 0 0 1 0-2.617 1.83 1.83 0 0 1 2.6 0l12.917 13.002zm-46.456-5.562c17.027 0 30.88-13.944 30.88-31.084s-13.853-31.084-30.88-31.084c-17.028 0-30.881 13.945-30.881 31.084 0 17.14 13.853 31.084 30.88 31.084zm0-56.53c13.94 0 25.28 11.415 25.28 25.446 0 14.032-11.34 25.447-25.28 25.447-13.94 0-25.281-11.415-25.281-25.447 0-14.031 11.34-25.447 25.28-25.447zm0 47.193c11.912 0 21.603-9.756 21.603-21.747 0-11.99-9.69-21.746-21.603-21.746-11.913 0-21.605 9.755-21.605 21.746 0 11.991 9.692 21.747 21.605 21.747z"/>
</svg>
